<svg width="32" height="32" viewBox="0 0 32 32" fill="none" xmlns="http://www.w3.org/2000/svg">
<circle r="16" transform="matrix(-1 0 0 1 16 16)" fill="#1D1D1F"/>
<path d="M10.8618 15.5609L18.2622 8.18093C18.5047 7.93928 18.8973 7.93968 19.1393 8.18218C19.3812 8.42465 19.3806 8.81743 19.1381 9.05927L12.1781 16L19.1383 22.9407C19.3808 23.1826 19.3814 23.5751 19.1396 23.8176C19.0182 23.9392 18.8593 24 18.7003 24C18.5417 24 18.3834 23.9396 18.2623 23.8189L10.8618 16.4391C10.745 16.3229 10.6794 16.1648 10.6794 16C10.6794 15.8353 10.7452 15.6773 10.8618 15.5609Z" fill="white"/>
</svg>
