<svg width="196" height="74" viewBox="0 0 196 74" fill="none" xmlns="http://www.w3.org/2000/svg">
<path d="M5.44537 2.90429C5.1583 1.55375 3.83076 0.691637 2.48022 0.978703C1.12968 1.26577 0.267565 2.59331 0.554631 3.94385L5.44537 2.90429ZM195.607 43.8149L166.822 41.6244L179.317 67.6476L195.607 43.8149ZM1.68605 8.78871C2.02752 10.1265 3.38886 10.9342 4.72668 10.5928C6.0645 10.2513 6.87219 8.88994 6.53072 7.55212L1.68605 8.78871ZM9.23944 16.5163C8.77994 15.2143 7.35195 14.5313 6.04995 14.9908C4.74794 15.4503 4.06496 16.8783 4.52446 18.1803L9.23944 16.5163ZM8.26031 27.2768C8.85141 28.5246 10.3421 29.0569 11.5899 28.4658C12.8377 27.8747 13.37 26.384 12.7789 25.1362L8.26031 27.2768ZM17.2243 33.2782C16.4916 32.1079 14.9489 31.7532 13.7787 32.4859C12.6084 33.2186 12.2537 34.7613 12.9864 35.9316L17.2243 33.2782ZM18.7901 44.0037C19.6678 45.0695 21.2434 45.2219 22.3092 44.3442C23.375 43.4664 23.5274 41.8909 22.6497 40.8251L18.7901 44.0037ZM28.9982 47.5482C27.9838 46.6116 26.4021 46.6746 25.4655 47.6891C24.5288 48.7035 24.5919 50.2852 25.6063 51.2218L28.9982 47.5482ZM33.3446 57.4403C34.4773 58.2299 36.0356 57.9518 36.8252 56.8192C37.6148 55.6865 37.3367 54.1282 36.2041 53.3386L33.3446 57.4403ZM44.1403 58.1255C42.9146 57.49 41.4057 57.9686 40.7702 59.1944C40.1348 60.4201 40.6133 61.929 41.8391 62.5645L44.1403 58.1255ZM50.8862 66.5783C52.1789 67.0633 53.62 66.4085 54.105 65.1157C54.59 63.823 53.9353 62.3819 52.6425 61.8969L50.8862 66.5783ZM61.538 64.696C60.2013 64.3502 58.8374 65.1535 58.4915 66.4902C58.1457 67.8269 58.949 69.1908 60.2857 69.5366L61.538 64.696ZM69.9097 71.5468C71.2726 71.7679 72.5566 70.8422 72.7777 69.4793C72.9987 68.1164 72.0731 66.8324 70.7102 66.6113L69.9097 71.5468ZM80.0474 67.7351C78.6712 67.6237 77.4653 68.6491 77.354 70.0254C77.2427 71.4016 78.2681 72.6075 79.6443 72.7188L80.0474 67.7351ZM89.4023 73.1603C90.7829 73.1759 91.9148 72.0693 91.9304 70.6887C91.946 69.3081 90.8394 68.1762 89.4588 68.1606L89.4023 73.1603ZM98.9097 67.9743C97.5307 68.0424 96.468 69.2156 96.5361 70.5946C96.6043 71.9737 97.7774 73.0364 99.1565 72.9682L98.9097 67.9743ZM108.868 72.2227C110.242 72.081 111.24 70.8527 111.099 69.4793C110.957 68.1059 109.729 67.1074 108.355 67.2491L108.868 72.2227ZM117.76 66.048C116.395 66.2548 115.456 67.5291 115.663 68.8942C115.87 70.2594 117.144 71.1984 118.509 70.9915L117.76 66.048ZM128.077 69.3279C129.432 69.0627 130.315 67.7493 130.05 66.3943C129.785 65.0393 128.471 64.1558 127.116 64.421L128.077 69.3279ZM136.405 62.4107C135.062 62.7288 134.23 64.0758 134.548 65.4194C134.866 66.763 136.213 67.5943 137.557 67.2762L136.405 62.4107ZM146.95 64.8692C148.281 64.5024 149.063 63.126 148.696 61.7949C148.329 60.4638 146.953 59.682 145.622 60.0488L146.95 64.8692ZM154.758 57.3603C153.441 57.7726 152.707 59.175 153.119 60.4928C153.531 61.8105 154.934 62.5445 156.251 62.1322L154.758 57.3603ZM165.44 59.089C166.743 58.6333 167.431 57.2074 166.975 55.904C166.519 54.6006 165.093 53.9134 163.79 54.369L165.44 59.089ZM172.73 51.0787C171.443 51.5768 170.802 53.0244 171.3 54.3122C171.798 55.5999 173.246 56.2402 174.534 55.7422L172.73 51.0787ZM183.516 52.096C184.787 51.5552 185.378 50.087 184.837 48.8166C184.297 47.5462 182.828 46.9546 181.558 47.4954L183.516 52.096ZM190.24 43.6186C188.99 44.2043 188.451 45.6926 189.037 46.943C189.622 48.1933 191.111 48.7321 192.361 48.1464L190.24 43.6186ZM0.554631 3.94385C0.905161 5.59296 1.28251 7.20774 1.68605 8.78871L6.53072 7.55212C6.14423 6.03794 5.78218 4.48888 5.44537 2.90429L0.554631 3.94385ZM4.52446 18.1803C5.65047 21.3709 6.89805 24.4012 8.26031 27.2768L12.7789 25.1362C11.4929 22.4216 10.3103 19.5507 9.23944 16.5163L4.52446 18.1803ZM12.9864 35.9316C14.7894 38.8113 16.7276 41.4993 18.7901 44.0037L22.6497 40.8251C20.7265 38.4898 18.9144 35.9776 17.2243 33.2782L12.9864 35.9316ZM25.6063 51.2218C28.0659 53.4928 30.6502 55.5618 33.3446 57.4403L36.2041 53.3386C33.6928 51.5879 31.2869 49.6614 28.9982 47.5482L25.6063 51.2218ZM41.8391 62.5645C44.7651 64.0814 47.7859 65.4151 50.8862 66.5783L52.6425 61.8969C49.7191 60.8001 46.881 59.5463 44.1403 58.1255L41.8391 62.5645ZM60.2857 69.5366C63.4365 70.3518 66.6489 71.0179 69.9097 71.5468L70.7102 66.6113C67.5919 66.1056 64.5307 65.4702 61.538 64.696L60.2857 69.5366ZM79.6443 72.7188C82.8666 72.9794 86.1231 73.1232 89.4023 73.1603L89.4588 68.1606C86.2881 68.1248 83.1474 67.9858 80.0474 67.7351L79.6443 72.7188ZM99.1565 72.9682C102.385 72.8087 105.626 72.5572 108.868 72.2227L108.355 67.2491C105.197 67.5749 102.045 67.8195 98.9097 67.9743L99.1565 72.9682ZM118.509 70.9915C121.709 70.5067 124.902 69.9492 128.077 69.3279L127.116 64.421C124.008 65.0293 120.886 65.5743 117.76 66.048L118.509 70.9915ZM137.557 67.2762C140.719 66.5276 143.854 65.7223 146.95 64.8692L145.622 60.0488C142.582 60.8864 139.506 61.6766 136.405 62.4107L137.557 67.2762ZM156.251 62.1322C159.37 61.1566 162.436 60.1389 165.44 59.089L163.79 54.369C160.837 55.4013 157.823 56.4016 154.758 57.3603L156.251 62.1322ZM174.534 55.7422C177.619 54.5489 180.618 53.3295 183.516 52.096L181.558 47.4954C178.711 48.7072 175.764 49.9057 172.73 51.0787L174.534 55.7422Z" fill="#FFC20E"/>
</svg>
