<svg width="2241" height="404" viewBox="0 0 2241 404" fill="none" xmlns="http://www.w3.org/2000/svg">
<path d="M2238 82.5C2024.3 58.6338 1928.09 35.6126 1664.5 32.1248C1241.52 32.7865 574 79.5 574 79.5C574 79.5 498.037 87.014 400.5 125C373.019 131.468 357.259 134.43 328.5 128L281.019 105.162C144.661 0.608803 37.9671 -23.614 10.9131 32.1248C-13.5 82.4228 73.5464 100.159 85.2901 157.188C97.0339 214.217 -2.67664 252.883 4.50013 331.423C11.6769 409.963 92.5001 410.923 149.5 387.923C202.389 366.582 301.245 285.587 343 238.229C363.953 220.738 376.566 213.777 400.5 206C467.322 188.663 503.194 172.69 574 171L1000 157.188C1538.49 149.91 1436.65 156.361 1664.5 157.188C1918.55 171.355 2020.83 185.832 2238 206" stroke="#FFC20E" stroke-width="5" stroke-linecap="round" stroke-dasharray="10 10"/>
<g clip-path="url(#clip0_26_1127)">
<path d="M89.7647 106.795C88.4703 106.795 87.4215 107.843 87.4214 109.138V111.481H76.435C75.4612 108.766 72.9261 106.795 69.8794 106.794C68.216 106.794 66.6526 106.147 65.476 104.971C64.2996 103.794 63.6524 102.231 63.6523 100.567C63.6523 97.5208 61.5702 94.8752 58.8552 93.9013L58.8552 82.9148L61.1984 82.9148C62.4928 82.9148 63.5416 81.8661 63.5417 80.5715C63.5417 79.2771 62.4929 78.2283 61.1984 78.2282L51.8252 78.2282C50.5308 78.2282 49.4821 79.277 49.482 80.5715C49.482 81.866 50.5307 82.9147 51.8252 82.9148L54.1684 82.9148L54.1684 93.9013C51.4538 94.8753 49.4822 97.4106 49.482 100.457C49.482 103.784 46.4714 106.795 43.1444 106.794C40.0974 106.794 37.4522 108.876 36.4784 111.592L25.4919 111.592L25.4919 109.248C25.4919 107.954 24.4432 106.905 23.1486 106.905C21.8542 106.905 20.8055 107.954 20.8053 109.248L20.8053 118.621C20.8053 119.916 21.8541 120.965 23.1486 120.965C24.4431 120.965 25.4919 119.916 25.4919 118.621L25.4919 116.278L36.4784 116.278C37.4524 118.993 40.0981 121.075 43.1444 121.075C44.8079 121.075 46.3712 121.723 47.5478 122.899C48.7242 124.076 49.3715 125.639 49.3716 127.303C49.3716 130.35 51.3432 132.884 54.0581 133.858L54.0581 144.845L51.715 144.845C50.4205 144.845 49.3718 145.893 49.3717 147.188C49.3717 148.482 50.4204 149.531 51.715 149.531L61.0881 149.531C62.3826 149.531 63.4313 148.482 63.4314 147.188C63.4314 145.893 62.3827 144.845 61.0881 144.845H58.7449L58.7449 133.834C61.4116 132.82 63.542 130.126 63.5419 127.192C63.5419 123.761 66.4489 120.854 69.8794 120.854C72.7231 120.854 75.427 119.152 76.4832 116.168H87.4214V118.511C87.4214 119.805 88.4702 120.854 89.7647 120.854C91.0592 120.854 92.1079 119.806 92.108 118.511V109.138C92.1079 107.843 91.0592 106.795 89.7647 106.795Z" fill="#FFC20E"/>
<path d="M56.5119 64.1688C47.7408 64.1687 40.1026 71.8135 40.109 80.5717C40.1072 85.6173 42.3282 90.4685 46.8932 93.7999C47.291 93.2282 47.7266 92.6777 48.2295 92.1748C48.8796 91.5247 49.6072 90.9894 50.3689 90.5165C46.6842 88.2323 44.7955 84.4827 44.7955 80.5717C44.7955 74.095 50.0351 68.8555 56.5119 68.8554C62.9886 68.8553 68.2281 74.0949 68.2282 80.5717C68.2282 84.6506 65.8932 88.3574 62.547 90.4668C63.9605 91.3242 65.1917 92.4443 66.1319 93.7989C70.6964 90.4663 72.9165 85.6173 72.9148 80.5717C72.918 71.5036 65.5804 64.1689 56.5119 64.1688Z" fill="#FFC20E"/>
<path d="M89.7645 97.4214C84.5074 97.4196 79.6888 100.2 76.6466 104.294C77.9198 105.202 78.9899 106.357 79.8153 107.689C82.1163 103.971 85.8871 102.108 89.7645 102.108C96.2412 102.108 101.481 107.348 101.481 113.824C101.481 120.084 96.024 125.541 89.7645 125.541C85.8374 125.541 82.0977 123.64 79.8218 119.971C79.3493 120.733 78.8143 121.46 78.1648 122.11C77.6618 122.613 77.1113 123.048 76.539 123.446C79.8724 128.01 84.719 130.229 89.7645 130.227C99.1272 130.231 106.167 123.187 106.167 113.824C106.167 104.756 98.8333 97.418 89.7645 97.4214Z" fill="#FFC20E"/>
<path d="M65.9711 133.919C65.5719 134.49 65.1375 135.04 64.6384 135.539C63.9871 136.191 63.2526 136.731 62.4837 137.21C66.2092 139.489 68.1178 143.248 68.1178 147.188C68.1178 153.447 62.6609 158.904 56.4015 158.904C49.9248 158.904 44.6853 153.664 44.6852 147.188C44.6852 143.302 46.5554 139.534 50.267 137.238C48.9348 136.413 47.7783 135.342 46.8708 134.068C42.7751 137.111 39.9956 141.93 39.9985 147.188C39.9951 156.255 47.3362 163.594 56.4014 163.591C65.7635 163.594 72.8077 156.547 72.8043 147.188C72.8061 142.14 70.5729 137.25 65.9711 133.919Z" fill="#FFC20E"/>
<path d="M23.1487 97.5318C14.3873 97.5286 6.74262 105.173 6.74582 113.935C6.74239 123.002 14.0835 130.341 23.1487 130.338C28.1942 130.339 33.0428 128.12 36.3758 123.554C35.0213 122.614 33.9013 121.383 33.0438 119.97C30.9343 123.316 27.2274 125.651 23.1487 125.651C16.6721 125.651 11.4325 120.411 11.4324 113.935C11.4323 107.458 16.6719 102.218 23.1487 102.218C27.0597 102.218 30.8092 104.107 33.0935 107.792C33.5664 107.03 34.1017 106.302 34.7518 105.652C35.2547 105.149 35.8053 104.714 36.3769 104.316C33.0454 99.7511 28.1943 97.5301 23.1487 97.5318Z" fill="#FFC20E"/>
</g>
<defs>
<clipPath id="clip0_26_1127">
<rect width="80" height="80" fill="white" transform="translate(0 113.991) rotate(-45)"/>
</clipPath>
</defs>
</svg>
