<svg width="213" height="79" viewBox="0 0 213 79" fill="none" xmlns="http://www.w3.org/2000/svg">
<path d="M5.01427 18.1354C4.19646 17.023 2.63167 16.7841 1.51922 17.6019C0.406769 18.4198 0.167916 19.9845 0.985728 21.097L5.01427 18.1354ZM212.283 0.404954L186.043 12.4397L209.585 29.1462L212.283 0.404954ZM4.0416 25.1593C4.88395 26.2533 6.45366 26.4573 7.54765 25.615C8.64164 24.7726 8.84564 23.2029 8.00329 22.1089L4.0416 25.1593ZM14.102 29.659C13.2086 28.6063 11.631 28.4772 10.5783 29.3706C9.52558 30.264 9.39642 31.8416 10.2898 32.8943L14.102 29.659ZM16.9264 40.3102C17.875 41.3135 19.4573 41.3578 20.4606 40.4093C21.4639 39.4607 21.5082 37.8784 20.5597 36.8751L16.9264 40.3102ZM27.4303 43.7213C26.4224 42.7776 24.8404 42.8296 23.8967 43.8375C22.953 44.8454 23.0051 46.4275 24.013 47.3712L27.4303 43.7213ZM31.5717 53.9825C32.6423 54.8543 34.217 54.6931 35.0888 53.6225C35.9606 52.5518 35.7994 50.9771 34.7288 50.1053L31.5717 53.9825ZM42.446 55.9138C41.3107 55.128 39.7534 55.4113 38.9676 56.5466C38.1817 57.6819 38.465 59.2392 39.6003 60.025L42.446 55.9138ZM48.1143 65.3935C49.3137 66.0774 50.8405 65.6594 51.5243 64.46C52.2082 63.2605 51.7902 61.7338 50.5907 61.0499L48.1143 65.3935ZM59.1791 65.4179C57.9191 64.8533 56.44 65.417 55.8754 66.677C55.3107 67.9369 55.8744 69.4161 57.1344 69.9807L59.1791 65.4179ZM66.5802 73.638C67.8924 74.0675 69.3043 73.352 69.7339 72.0398C70.1634 70.7276 69.4479 69.3157 68.1357 68.8861L66.5802 73.638ZM77.3863 71.3607C76.0347 71.0787 74.7104 71.9458 74.4284 73.2974C74.1464 74.6491 75.0135 75.9733 76.3651 76.2553L77.3863 71.3607ZM86.3769 77.7603C87.7517 77.888 88.9697 76.877 89.0974 75.5022C89.2251 74.1274 88.2141 72.9094 86.8393 72.7817L86.3769 77.7603ZM96.4062 73.1298C95.0258 73.1565 93.9283 74.2972 93.955 75.6777C93.9817 77.0581 95.1225 78.1556 96.5029 78.1288L96.4062 73.1298ZM106.6 77.3854C107.97 77.211 108.939 75.9594 108.765 74.5897C108.59 73.22 107.338 72.2511 105.969 72.4255L106.6 77.3854ZM115.422 70.7308C114.077 71.0412 113.238 72.3834 113.548 73.7288C113.859 75.0742 115.201 75.9132 116.546 75.6028L115.422 70.7308ZM126.258 72.8808C127.569 72.4486 128.282 71.0352 127.85 69.7239C127.418 68.4126 126.004 67.6999 124.693 68.1321L126.258 72.8808ZM133.722 64.7278C132.451 65.2671 131.858 66.7346 132.397 68.0057C132.936 69.2767 134.404 69.8699 135.675 69.3306L133.722 64.7278ZM144.768 65.0581C145.995 64.4255 146.477 62.9178 145.844 61.6905C145.212 60.4632 143.704 59.9812 142.477 60.6138L144.768 65.0581ZM150.935 55.8811C149.753 56.5947 149.373 58.1313 150.087 59.3134C150.801 60.4954 152.337 60.8751 153.519 60.1615L150.935 55.8811ZM161.927 54.7242C163.064 53.9401 163.349 52.3832 162.565 51.2467C161.781 50.1103 160.224 49.8247 159.088 50.6088L161.927 54.7242ZM166.931 44.8645C165.84 45.7104 165.641 47.2808 166.487 48.372C167.333 49.4632 168.904 49.6621 169.995 48.8161L166.931 44.8645ZM177.726 42.4956C178.772 41.5949 178.891 40.0165 177.99 38.9699C177.089 37.9234 175.511 37.8052 174.464 38.7058L177.726 42.4956ZM181.698 32.1689C180.696 33.1187 180.653 34.7011 181.603 35.7032C182.553 36.7053 184.135 36.7477 185.137 35.7979L181.698 32.1689ZM192.216 28.7732C193.174 27.7786 193.144 26.196 192.149 25.2383C191.155 24.2806 189.572 24.3105 188.614 25.3051L192.216 28.7732ZM195.219 18.1323C194.306 19.1686 194.407 20.7483 195.443 21.6607C196.479 22.573 198.059 22.4726 198.971 21.4362L195.219 18.1323ZM205.399 13.7975C206.264 12.7212 206.092 11.1476 205.016 10.2827C203.94 9.41786 202.366 9.58927 201.501 10.6656L205.399 13.7975ZM207.422 2.93502C206.609 4.05092 206.854 5.61468 207.97 6.42778C209.086 7.24087 210.65 6.9954 211.463 5.87949L207.422 2.93502ZM0.985728 21.097C2.00227 22.4798 3.02093 23.8338 4.0416 25.1593L8.00329 22.1089C7.00561 20.8132 6.00923 19.4888 5.01427 18.1354L0.985728 21.097ZM10.2898 32.8943C12.4942 35.4918 14.7068 37.9625 16.9264 40.3102L20.5597 36.8751C18.4035 34.5946 16.2505 32.1907 14.102 29.659L10.2898 32.8943ZM24.013 47.3712C26.5257 49.7238 29.0459 51.9258 31.5717 53.9825L34.7288 50.1053C32.2953 48.1238 29.8618 45.9978 27.4303 43.7213L24.013 47.3712ZM39.6003 60.025C42.4347 61.9869 45.2735 63.7739 48.1143 65.3935L50.5907 61.0499C47.8797 59.5043 45.1639 57.7951 42.446 55.9138L39.6003 60.025ZM57.1344 69.9807C60.2865 71.3933 63.4364 72.6089 66.5802 73.638L68.1357 68.8861C65.1601 67.9121 62.1735 66.7598 59.1791 65.4179L57.1344 69.9807ZM76.3651 76.2553C79.7179 76.9548 83.0568 77.4519 86.3769 77.7603L86.8393 72.7817C83.7049 72.4906 80.5526 72.0213 77.3863 71.3607L76.3651 76.2553ZM96.5029 78.1288C99.898 78.0632 103.266 77.81 106.6 77.3854L105.969 72.4255C102.806 72.8282 99.6166 73.0677 96.4062 73.1298L96.5029 78.1288ZM116.546 75.6028C119.824 74.8467 123.063 73.9339 126.258 72.8808L124.693 68.1321C121.636 69.1396 118.544 70.0106 115.422 70.7308L116.546 75.6028ZM135.675 69.3306C138.754 68.0238 141.787 66.5944 144.768 65.0581L142.477 60.6138C139.601 62.096 136.681 63.472 133.722 64.7278L135.675 69.3306ZM153.519 60.1615C156.379 58.4351 159.183 56.6177 161.927 54.7242L159.088 50.6088C156.423 52.4475 153.704 54.2096 150.935 55.8811L153.519 60.1615ZM169.995 48.8161C172.638 46.7667 175.217 44.6548 177.726 42.4956L174.464 38.7058C172.017 40.8117 169.505 42.8695 166.931 44.8645L169.995 48.8161ZM185.137 35.7979C187.578 33.4852 189.939 31.138 192.216 28.7732L188.614 25.3051C186.388 27.6167 184.081 29.9101 181.698 32.1689L185.137 35.7979ZM198.971 21.4362C201.218 18.8845 203.362 16.3315 205.399 13.7975L201.501 10.6656C199.511 13.1417 197.415 15.6374 195.219 18.1323L198.971 21.4362Z" fill="#FFC20E"/>
</svg>
