<svg width="107" height="107" viewBox="0 0 107 107" fill="none" xmlns="http://www.w3.org/2000/svg">
<g clip-path="url(#clip0_21_239)">
<path d="M86.8127 57.7481C85.5964 57.3053 84.2522 57.9321 83.8093 59.1486L83.0079 61.3504L72.684 57.5928C72.6975 54.7085 70.9896 51.9889 68.1267 50.9468C66.5636 50.3778 65.3159 49.2349 64.6127 47.7269C63.9095 46.2191 63.836 44.5286 64.4049 42.9653C65.4469 40.1025 64.3952 36.9044 62.1771 35.0606L65.9347 24.7367L68.1365 25.5381C69.3529 25.9809 70.6971 25.3541 71.1399 24.1376C71.5827 22.9212 70.9559 21.5771 69.7394 21.1342L60.9316 17.9284C59.7152 17.4857 58.371 18.1125 57.9281 19.3289C57.4854 20.5453 58.1122 21.8895 59.3286 22.3323L61.5305 23.1338L57.7729 33.4576C54.8889 33.4445 52.169 35.1526 51.1269 38.0151C49.989 41.1416 46.1304 42.9409 43.004 41.8029C40.1408 40.7607 36.943 41.8124 35.0993 44.0307L24.7754 40.2731L25.5768 38.0712C26.0195 36.8549 25.3928 35.5107 24.1763 35.0678C22.9599 34.6251 21.6158 35.2519 21.1729 36.4683L17.9671 45.2762C17.5244 46.4926 18.1511 47.8368 19.3676 48.2796C20.584 48.7224 21.9283 48.0955 22.371 46.8791L23.1724 44.6773L33.4963 48.4348C33.4831 51.3191 35.2571 54.1806 38.1196 55.2225C39.6828 55.7915 40.9305 56.9344 41.6337 58.4424C42.3368 59.9502 42.4103 61.6407 41.8415 63.204C40.7993 66.0672 41.7851 69.1235 44.0033 70.9671L40.2457 81.291L38.0438 80.4895C36.8274 80.0468 35.4833 80.6736 35.0404 81.8901C34.5977 83.1064 35.2245 84.4506 36.4409 84.8935L45.2488 88.0993C46.4652 88.542 47.8093 87.9152 48.2522 86.6988C48.6949 85.4824 48.0681 84.1382 46.8517 83.6953L44.6498 82.8939L48.4157 72.5472C51.2684 72.5064 54.1915 70.704 55.195 67.9466C56.3683 64.7229 60.0943 62.9855 63.3179 64.1588C65.9901 65.1314 69.1133 64.4562 71.1263 62.0135L81.4049 65.7546L80.6035 67.9564C80.1608 69.1728 80.7876 70.517 82.004 70.9599C83.2204 71.4026 84.5646 70.7758 85.0075 69.5593L88.2133 60.7515C88.6559 59.5349 88.0291 58.1908 86.8127 57.7481Z" fill="#FFC20E"/>
<path d="M70.1441 6.31966C61.902 3.31966 52.1098 7.89103 49.1203 16.1232C47.3929 20.864 47.8208 26.1822 50.9711 30.874C51.5404 30.4729 52.1381 30.1045 52.7827 29.8039C53.6159 29.4154 54.4827 29.1612 55.3602 28.9774C52.6789 25.5707 52.1866 21.4012 53.5243 17.7261C55.7394 11.6401 62.455 8.50852 68.5412 10.7236C74.6274 12.9387 77.7588 19.6543 75.5437 25.7406C74.1487 29.5735 70.6867 32.2581 66.8209 33.0958C67.8558 34.385 68.6297 35.8587 69.0499 37.4531C74.479 35.8827 78.2236 32.0854 79.9477 27.3435C83.0522 18.8233 78.6657 9.42139 70.1441 6.31966Z" fill="#FFC20E"/>
<path d="M90.0184 48.9401C85.0789 47.1404 79.5999 48.105 75.3408 50.9121C76.227 52.1999 76.8372 53.652 77.1573 55.1861C80.5913 52.4788 84.7719 52.0179 88.4155 53.3441C94.5015 55.5592 97.6331 62.2748 95.418 68.361C93.2771 74.243 86.283 77.5044 80.401 75.3635C76.7108 74.0204 73.8466 70.9554 72.9629 66.7291C72.2583 67.2834 71.5067 67.7842 70.6742 68.1724C70.0296 68.473 69.3632 68.6941 68.6895 68.8719C70.261 74.3004 74.0562 78.0436 78.7981 79.7675C87.595 82.9729 96.6196 78.7622 99.8219 69.9639C102.923 61.4428 98.5414 52.0386 90.0184 48.9401Z" fill="#FFC20E"/>
<path d="M55.1768 75.0989C54.6065 75.4986 54.0101 75.8671 53.3705 76.1654C52.5357 76.5546 51.6605 76.8115 50.7741 76.9988C53.4957 80.4139 54.0034 84.5995 52.6561 88.3012C50.5152 94.1831 43.5211 97.4445 37.6391 95.3037C31.5531 93.0885 28.4215 86.373 30.6366 80.2867C31.9654 76.6359 35.0118 73.7341 39.2846 72.8467C38.3152 71.6151 37.5945 70.2139 37.1774 68.7064C32.2883 70.1642 28.028 73.7424 26.2325 78.6839C23.1281 87.2033 27.5165 96.6102 36.0361 99.7077C44.8324 102.913 53.8619 98.7006 57.0599 89.9041C58.788 85.1613 58.3619 79.8028 55.1768 75.0989Z" fill="#FFC20E"/>
<path d="M27.3822 26.2597C19.1503 23.2602 9.35195 27.8292 6.35839 36.0633C3.25393 44.5827 7.64233 53.9896 16.162 57.0871C20.9026 58.8145 26.2178 58.3873 30.9113 55.237C29.96 53.8901 29.3286 52.3504 29.0063 50.7289C25.8795 53.1519 21.5976 54.0782 17.7649 52.6832C11.6788 50.468 8.54725 43.7524 10.7623 37.6662C12.9774 31.58 19.6931 28.4486 25.7793 30.6637C29.4544 32.0013 32.3319 35.0584 33.2181 39.3022C33.923 38.7482 34.6749 38.2476 35.5081 37.8591C36.1527 37.5585 36.8191 37.3374 37.4923 37.1592C35.923 31.7301 32.124 27.9839 27.3822 26.2597Z" fill="#FFC20E"/>
</g>
<defs>
<clipPath id="clip0_21_239">
<rect width="80" height="80" fill="white" transform="translate(0 33.8094) rotate(-25)"/>
</clipPath>
</defs>
</svg>
