<svg width="129" height="48" viewBox="0 0 129 48" fill="none" xmlns="http://www.w3.org/2000/svg">
<path fill-rule="evenodd" clip-rule="evenodd" d="M28.125 0H34.6153L24.0384 20.7349H31.7307L45.4328 47.5962H38.9422L17.2317 26.8612H0L28.125 0ZM73.2507 13.4625C73.2507 13.9086 73.1627 14.3253 72.9865 14.7126C72.8222 15.0999 72.5934 15.4402 72.2999 15.7338C72.0065 16.0155 71.6602 16.2444 71.2611 16.4203C70.8738 16.5847 70.4571 16.667 70.011 16.667C69.565 16.667 69.1425 16.5847 68.7433 16.4203C68.356 16.2444 68.0157 16.0155 67.7223 15.7338C67.4406 15.4402 67.2117 15.0999 67.0356 14.7126C66.8713 14.3253 66.7892 13.9086 66.7892 13.4625C66.7892 13.0282 66.8713 12.6174 67.0356 12.2301C67.2117 11.831 67.4406 11.4906 67.7223 11.2089C68.0157 10.9155 68.356 10.6866 68.7433 10.5223C69.1425 10.3462 69.565 10.2582 70.011 10.2582C70.4571 10.2582 70.8738 10.3462 71.2611 10.5223C71.6602 10.6866 72.0065 10.9155 72.2999 11.2089C72.5934 11.4906 72.8222 11.831 72.9865 12.2301C73.1627 12.6174 73.2507 13.0282 73.2507 13.4625ZM72.4231 37.4422H67.5815V18.5859H72.4231V37.4422ZM65.451 37.4422H47.7743V12.1949H52.8273V32.3893H65.451V37.4422ZM76.1028 37.4422H80.9094V26.6673C80.9094 26.1742 81.0033 25.7106 81.1911 25.2763C81.3789 24.8304 81.637 24.4429 81.9657 24.1143C82.2943 23.7856 82.6818 23.5275 83.1277 23.3397C83.5738 23.1519 84.0492 23.058 84.5538 23.058C85.0469 23.058 85.5105 23.1519 85.9447 23.3397C86.379 23.5275 86.7606 23.7856 87.0892 24.1143C87.4179 24.4429 87.676 24.8304 87.8639 25.2763C88.0517 25.7106 88.1455 26.1742 88.1455 26.6673V37.4422H92.952V26.6673C92.952 25.5052 92.7291 24.4137 92.283 23.3925C91.8487 22.3596 91.2501 21.4617 90.4872 20.6988C89.7243 19.924 88.8322 19.3195 87.8111 18.8853C86.7898 18.4392 85.7042 18.2163 84.5538 18.2163C83.4858 18.2163 82.4587 18.4099 81.4728 18.7972C80.4986 19.1728 79.624 19.7128 78.8494 20.4171L77.2648 18.5859H76.1028V37.4422ZM105.593 37.4422C104.431 37.4422 103.34 37.2252 102.319 36.7909C101.297 36.3448 100.4 35.7403 99.6249 34.9774C98.8619 34.2027 98.2575 33.3048 97.8114 32.2836C97.3772 31.2625 97.16 30.1708 97.16 29.0089V23.41H94.8183V18.6211H97.16V11.0857H101.949V18.6211H109.238V23.41H101.949V29.0089C101.949 29.5135 102.043 29.989 102.231 30.435C102.418 30.8692 102.677 31.2507 103.005 31.5793C103.334 31.908 103.721 32.1721 104.167 32.3716C104.613 32.5594 105.089 32.6533 105.593 32.6533H109.238V37.4422H105.593ZM124.555 36.2451C125.001 35.9281 125.418 35.5936 125.805 35.2416L127.39 37.4422H128.552V18.5859H123.745V29.0089C123.745 29.5135 123.652 30.0066 123.464 30.4878C123.276 30.9573 123.018 31.3798 122.689 31.7554C122.36 32.131 121.973 32.4363 121.527 32.671C121.093 32.8939 120.629 33.0055 120.136 33.0055C119.631 33.0055 119.156 32.9175 118.71 32.7414C118.276 32.5653 117.894 32.3071 117.566 31.9668C117.237 31.6263 116.973 31.2097 116.773 30.7167C116.586 30.2119 116.492 29.6427 116.492 29.0089V18.5859H111.703V29.0089C111.703 30.3586 111.92 31.5793 112.354 32.671C112.8 33.7509 113.405 34.6722 114.168 35.4352C114.942 36.1864 115.84 36.7674 116.861 37.1782C117.883 37.5891 118.974 37.7944 120.136 37.7944C120.664 37.7944 121.181 37.7239 121.686 37.5831C122.202 37.4541 122.701 37.278 123.182 37.0549C123.663 36.8202 124.121 36.5502 124.555 36.2451Z" fill="#FFC20E"/>
</svg>
