<svg width="342" height="148" viewBox="0 0 342 148" fill="none" xmlns="http://www.w3.org/2000/svg">
<g filter="url(#filter0_d_313_61)">
<path d="M17.7766 11V23.628H19.7366V28.752H18.3086V25H6.21263V28.752H4.78463V23.628H6.40863C7.43529 22.2467 7.94863 20.3707 7.94863 18V11H17.7766ZM8.14463 23.628H16.3486V12.372H9.34863V18C9.34863 20.3147 8.94729 22.1907 8.14463 23.628ZM28.6774 25.308C26.624 25.308 24.8787 24.608 23.4414 23.208C22.0227 21.7893 21.3134 20.0533 21.3134 18C21.3134 15.9467 22.0227 14.22 23.4414 12.82C24.86 11.4013 26.6054 10.692 28.6774 10.692C30.712 10.692 32.4387 11.4013 33.8574 12.82C35.2947 14.22 36.0134 15.9467 36.0134 18C36.0134 20.0347 35.2947 21.7707 33.8574 23.208C32.42 24.608 30.6934 25.308 28.6774 25.308ZM24.4494 22.228C25.6067 23.3853 27.016 23.964 28.6774 23.964C30.32 23.964 31.72 23.3853 32.8774 22.228C34.016 21.0893 34.5854 19.68 34.5854 18C34.5854 16.32 34.016 14.9107 32.8774 13.772C31.72 12.6147 30.32 12.036 28.6774 12.036C27.016 12.036 25.6067 12.6147 24.4494 13.772C23.3107 14.9107 22.7414 16.32 22.7414 18C22.7414 19.68 23.3107 21.0893 24.4494 22.228ZM45.7946 25.308C43.6852 25.308 41.9306 24.608 40.5306 23.208C39.1306 21.808 38.4306 20.072 38.4306 18C38.4306 15.928 39.1306 14.192 40.5306 12.792C41.9306 11.392 43.6852 10.692 45.7946 10.692C47.1572 10.692 48.3892 11.0187 49.4906 11.672C50.5919 12.3067 51.3946 13.1747 51.8986 14.276L50.7506 14.948C50.3399 14.052 49.6866 13.3427 48.7906 12.82C47.9132 12.2973 46.9146 12.036 45.7946 12.036C44.1332 12.036 42.7239 12.6147 41.5666 13.772C40.4279 14.9107 39.8586 16.32 39.8586 18C39.8586 19.6987 40.4279 21.1173 41.5666 22.256C42.7052 23.3947 44.1146 23.964 45.7946 23.964C46.9146 23.964 47.9132 23.7027 48.7906 23.18C49.6866 22.6573 50.3679 21.948 50.8346 21.052L52.0106 21.752C51.4506 22.8347 50.6106 23.7027 49.4906 24.356C48.3706 24.9907 47.1386 25.308 45.7946 25.308ZM53.0124 11H64.6044V12.372H59.5084V25H58.1084V12.372H53.0124V11ZM78.9096 14.164V11H80.3376V25H78.9096V21.836C78.2936 22.9187 77.4629 23.768 76.4176 24.384C75.3723 25 74.1963 25.308 72.8896 25.308C70.9109 25.308 69.2029 24.608 67.7656 23.208C66.3469 21.7893 65.6376 20.0533 65.6376 18C65.6376 15.9467 66.3469 14.22 67.7656 12.82C69.1843 11.4013 70.8923 10.692 72.8896 10.692C74.1963 10.692 75.3723 11 76.4176 11.616C77.4629 12.232 78.2936 13.0813 78.9096 14.164ZM68.7736 22.228C69.9309 23.3853 71.3403 23.964 73.0016 23.964C74.6443 23.964 76.0443 23.3853 77.2016 22.228C78.3403 21.0893 78.9096 19.68 78.9096 18C78.9096 16.32 78.3403 14.9107 77.2016 13.772C76.0443 12.6147 74.6443 12.036 73.0016 12.036C71.3403 12.036 69.9309 12.6147 68.7736 13.772C67.6349 14.9107 67.0656 16.32 67.0656 18C67.0656 19.68 67.6349 21.0893 68.7736 22.228ZM93.2605 17.776C94.9031 18.2987 95.7245 19.4187 95.7245 21.136C95.7245 22.2933 95.3418 23.2267 94.5765 23.936C93.8298 24.6453 92.7751 25 91.4125 25H84.6365V11H90.8805C92.1871 11 93.2045 11.3453 93.9325 12.036C94.6791 12.708 95.0525 13.5853 95.0525 14.668C95.0525 16.1613 94.4551 17.1973 93.2605 17.776ZM90.8805 12.372H86.0365V17.216H90.8805C91.7765 17.216 92.4578 17.0013 92.9245 16.572C93.3911 16.1427 93.6245 15.536 93.6245 14.752C93.6245 14.0053 93.3818 13.4267 92.8965 13.016C92.4298 12.5867 91.7578 12.372 90.8805 12.372ZM86.0365 23.628H91.4125C92.3458 23.628 93.0645 23.404 93.5685 22.956C94.0725 22.508 94.3245 21.8827 94.3245 21.08C94.3245 20.296 94.0631 19.6893 93.5405 19.26C93.0365 18.812 92.3271 18.588 91.4125 18.588H86.0365V23.628ZM101.74 17.72L109.552 25H107.648L100.228 18.112V25H98.8279V11H100.228V17.356L107.312 11H109.272L101.74 17.72ZM123.289 14.164V11H124.717V25H123.289V21.836C122.673 22.9187 121.842 23.768 120.797 24.384C119.751 25 118.575 25.308 117.269 25.308C115.29 25.308 113.582 24.608 112.145 23.208C110.726 21.7893 110.017 20.0533 110.017 18C110.017 15.9467 110.726 14.22 112.145 12.82C113.563 11.4013 115.271 10.692 117.269 10.692C118.575 10.692 119.751 11 120.797 11.616C121.842 12.232 122.673 13.0813 123.289 14.164ZM113.153 22.228C114.31 23.3853 115.719 23.964 117.381 23.964C119.023 23.964 120.423 23.3853 121.581 22.228C122.719 21.0893 123.289 19.68 123.289 18C123.289 16.32 122.719 14.9107 121.581 13.772C120.423 12.6147 119.023 12.036 117.381 12.036C115.719 12.036 114.31 12.6147 113.153 13.772C112.014 14.9107 111.445 16.32 111.445 18C111.445 19.68 112.014 21.0893 113.153 22.228Z" fill="#1D1D1F"/>
</g>
<g filter="url(#filter1_d_313_61)">
<path d="M47.7816 49.1V85.682H52.8066V104.978H42.0866V96H18.6366V104.978H7.91662V85.682H12.6736C15.1303 82.1533 16.3586 76.972 16.3586 70.138V49.1H47.7816ZM24.0636 85.682H37.0616V59.15H27.0786V70.272C27.0786 76.9273 26.0736 82.064 24.0636 85.682ZM58.499 49.1H76.254C80.8993 49.1 84.7853 50.6633 87.912 53.79C91.0833 56.9613 92.669 60.758 92.669 65.18C92.669 69.602 91.0833 73.3987 87.912 76.57C84.7853 79.6967 80.8993 81.26 76.254 81.26H69.219V96H58.499V49.1ZM69.219 71.21H76.254C77.9067 71.21 79.269 70.6293 80.341 69.468C81.413 68.3067 81.949 66.8773 81.949 65.18C81.949 63.4827 81.413 62.0533 80.341 60.892C79.269 59.7307 77.9067 59.15 76.254 59.15H69.219V71.21ZM137.355 89.903C132.621 94.593 126.859 96.938 120.069 96.938C113.28 96.938 107.518 94.593 102.783 89.903C98.0487 85.213 95.6814 79.4287 95.6814 72.55C95.6814 65.6713 98.0487 59.887 102.783 55.197C107.518 50.507 113.28 48.162 120.069 48.162C126.859 48.162 132.621 50.507 137.355 55.197C142.09 59.887 144.457 65.6713 144.457 72.55C144.457 79.4287 142.09 85.213 137.355 89.903ZM106.401 72.55C106.401 76.6593 107.697 80.0093 110.287 82.6C112.878 85.1907 116.139 86.486 120.069 86.486C123.955 86.486 127.194 85.1907 129.784 82.6C132.42 79.9647 133.737 76.6147 133.737 72.55C133.737 68.4853 132.42 65.1353 129.784 62.5C127.194 59.9093 123.955 58.614 120.069 58.614C116.139 58.614 112.878 59.9093 110.287 62.5C107.697 65.0907 106.401 68.4407 106.401 72.55ZM175.953 67.056V49.1H186.673V96H175.953V77.374H161.213V96H150.493V49.1H161.213V67.056H175.953ZM236.264 96H224.539L222.194 88.63H204.774L202.429 96H190.704L206.65 49.1H220.318L236.264 96ZM213.484 61.361L207.99 78.58H218.978L213.484 61.361ZM276.443 49.1H287.163V96H276.443V68.731L264.316 88.63H263.11L250.983 68.731V96H240.263V49.1H250.983L263.713 69.937L276.443 49.1ZM332.074 96H321.354V70.54L303.264 96H295.224V49.1H305.944V74.56L324.034 49.1H332.074V96Z" fill="#1D1D1F"/>
</g>
<g filter="url(#filter2_d_313_61)">
<path d="M136.044 126.776C137.686 127.299 138.508 128.419 138.508 130.136C138.508 131.293 138.125 132.227 137.36 132.936C136.613 133.645 135.558 134 134.196 134H127.42V120H133.664C134.97 120 135.988 120.345 136.716 121.036C137.462 121.708 137.836 122.585 137.836 123.668C137.836 125.161 137.238 126.197 136.044 126.776ZM133.664 121.372H128.82V126.216H133.664C134.56 126.216 135.241 126.001 135.708 125.572C136.174 125.143 136.408 124.536 136.408 123.752C136.408 123.005 136.165 122.427 135.68 122.016C135.213 121.587 134.541 121.372 133.664 121.372ZM128.82 132.628H134.196C135.129 132.628 135.848 132.404 136.352 131.956C136.856 131.508 137.108 130.883 137.108 130.08C137.108 129.296 136.846 128.689 136.324 128.26C135.82 127.812 135.11 127.588 134.196 127.588H128.82V132.628ZM157.7 126.776C159.343 127.299 160.164 128.419 160.164 130.136C160.164 131.293 159.781 132.227 159.016 132.936C158.269 133.645 157.215 134 155.852 134H149.076V120H155.32C156.627 120 157.644 120.345 158.372 121.036C159.119 121.708 159.492 122.585 159.492 123.668C159.492 125.161 158.895 126.197 157.7 126.776ZM155.32 121.372H150.476V126.216H155.32C156.216 126.216 156.897 126.001 157.364 125.572C157.831 125.143 158.064 124.536 158.064 123.752C158.064 123.005 157.821 122.427 157.336 122.016C156.869 121.587 156.197 121.372 155.32 121.372ZM150.476 132.628H155.852C156.785 132.628 157.504 132.404 158.008 131.956C158.512 131.508 158.764 130.883 158.764 130.08C158.764 129.296 158.503 128.689 157.98 128.26C157.476 127.812 156.767 127.588 155.852 127.588H150.476V132.628ZM175.587 123.164V120H177.015V134H175.587V130.836C174.971 131.919 174.141 132.768 173.095 133.384C172.05 134 170.874 134.308 169.567 134.308C167.589 134.308 165.881 133.608 164.443 132.208C163.025 130.789 162.315 129.053 162.315 127C162.315 124.947 163.025 123.22 164.443 121.82C165.862 120.401 167.57 119.692 169.567 119.692C170.874 119.692 172.05 120 173.095 120.616C174.141 121.232 174.971 122.081 175.587 123.164ZM165.451 131.228C166.609 132.385 168.018 132.964 169.679 132.964C171.322 132.964 172.722 132.385 173.879 131.228C175.018 130.089 175.587 128.68 175.587 127C175.587 125.32 175.018 123.911 173.879 122.772C172.722 121.615 171.322 121.036 169.679 121.036C168.018 121.036 166.609 121.615 165.451 122.772C164.313 123.911 163.743 125.32 163.743 127C163.743 128.68 164.313 130.089 165.451 131.228ZM198.45 132.628V120H199.878V134H181.314V120H182.714V132.628H189.882V120H191.31V132.628H198.45ZM210.501 119.692C212.554 119.692 214.216 120.42 215.485 121.876C216.773 123.332 217.417 125.059 217.417 127.056C217.417 127.093 217.408 127.205 217.389 127.392C217.389 127.579 217.389 127.691 217.389 127.728H204.705C204.873 129.296 205.498 130.565 206.581 131.536C207.664 132.488 209.017 132.964 210.641 132.964C211.742 132.964 212.713 132.74 213.553 132.292C214.393 131.825 215.037 131.2 215.485 130.416L216.717 131.144C216.138 132.115 215.308 132.889 214.225 133.468C213.161 134.028 211.957 134.308 210.613 134.308C208.448 134.308 206.684 133.627 205.321 132.264C203.94 130.883 203.249 129.128 203.249 127C203.249 124.909 203.921 123.173 205.265 121.792C206.646 120.392 208.392 119.692 210.501 119.692ZM210.501 121.036C208.933 121.036 207.608 121.531 206.525 122.52C205.461 123.509 204.854 124.788 204.705 126.356H215.961C215.812 124.695 215.214 123.397 214.169 122.464C213.124 121.512 211.901 121.036 210.501 121.036ZM232.533 120H234.213V134H232.785V122.128L227.549 130.388H227.353L222.089 122.072V134H220.689V120H222.341L227.437 128.036L232.533 120ZM245.982 120H254.746V121.372H247.382V134H245.982V120ZM263.113 134.308C261.06 134.308 259.314 133.608 257.877 132.208C256.458 130.789 255.749 129.053 255.749 127C255.749 124.947 256.458 123.22 257.877 121.82C259.296 120.401 261.041 119.692 263.113 119.692C265.148 119.692 266.874 120.401 268.293 121.82C269.73 123.22 270.449 124.947 270.449 127C270.449 129.035 269.73 130.771 268.293 132.208C266.856 133.608 265.129 134.308 263.113 134.308ZM258.885 131.228C260.042 132.385 261.452 132.964 263.113 132.964C264.756 132.964 266.156 132.385 267.313 131.228C268.452 130.089 269.021 128.68 269.021 127C269.021 125.32 268.452 123.911 267.313 122.772C266.156 121.615 264.756 121.036 263.113 121.036C261.452 121.036 260.042 121.615 258.885 122.772C257.746 123.911 257.177 125.32 257.177 127C257.177 128.68 257.746 130.089 258.885 131.228ZM281.238 119.692C283.254 119.692 284.962 120.401 286.362 121.82C287.781 123.22 288.49 124.947 288.49 127C288.49 129.053 287.781 130.789 286.362 132.208C284.962 133.608 283.254 134.308 281.238 134.308C279.913 134.308 278.718 134 277.654 133.384C276.609 132.749 275.797 131.872 275.218 130.752V139.6H273.818V120H275.218V123.248C275.797 122.128 276.609 121.26 277.654 120.644C278.718 120.009 279.913 119.692 281.238 119.692ZM276.926 131.228C278.083 132.385 279.493 132.964 281.154 132.964C282.797 132.964 284.197 132.385 285.354 131.228C286.511 130.071 287.09 128.661 287.09 127C287.09 125.339 286.511 123.929 285.354 122.772C284.197 121.615 282.797 121.036 281.154 121.036C279.493 121.036 278.083 121.615 276.926 122.772C275.787 123.911 275.218 125.32 275.218 127C275.218 128.68 275.787 130.089 276.926 131.228ZM298.277 134.308C296.224 134.308 294.478 133.608 293.041 132.208C291.622 130.789 290.913 129.053 290.913 127C290.913 124.947 291.622 123.22 293.041 121.82C294.46 120.401 296.205 119.692 298.277 119.692C300.312 119.692 302.038 120.401 303.457 121.82C304.894 123.22 305.613 124.947 305.613 127C305.613 129.035 304.894 130.771 303.457 132.208C302.02 133.608 300.293 134.308 298.277 134.308ZM294.049 131.228C295.206 132.385 296.616 132.964 298.277 132.964C299.92 132.964 301.32 132.385 302.477 131.228C303.616 130.089 304.185 128.68 304.185 127C304.185 125.32 303.616 123.911 302.477 122.772C301.32 121.615 299.92 121.036 298.277 121.036C296.616 121.036 295.206 121.615 294.049 122.772C292.91 123.911 292.341 125.32 292.341 127C292.341 128.68 292.91 130.089 294.049 131.228ZM319.915 120V132.628H321.875V137.752H320.447V134H308.351V137.752H306.923V132.628H308.547C309.574 131.247 310.087 129.371 310.087 127V120H319.915ZM310.283 132.628H318.487V121.372H311.487V127C311.487 129.315 311.086 131.191 310.283 132.628ZM330.704 119.692C332.757 119.692 334.419 120.42 335.688 121.876C336.976 123.332 337.62 125.059 337.62 127.056C337.62 127.093 337.611 127.205 337.592 127.392C337.592 127.579 337.592 127.691 337.592 127.728H324.908C325.076 129.296 325.701 130.565 326.784 131.536C327.867 132.488 329.22 132.964 330.844 132.964C331.945 132.964 332.916 132.74 333.756 132.292C334.596 131.825 335.24 131.2 335.688 130.416L336.92 131.144C336.341 132.115 335.511 132.889 334.428 133.468C333.364 134.028 332.16 134.308 330.816 134.308C328.651 134.308 326.887 133.627 325.524 132.264C324.143 130.883 323.452 129.128 323.452 127C323.452 124.909 324.124 123.173 325.468 121.792C326.849 120.392 328.595 119.692 330.704 119.692ZM330.704 121.036C329.136 121.036 327.811 121.531 326.728 122.52C325.664 123.509 325.057 124.788 324.908 126.356H336.164C336.015 124.695 335.417 123.397 334.372 122.464C333.327 121.512 332.104 121.036 330.704 121.036Z" fill="#1D1D1F"/>
</g>
<defs>
<filter id="filter0_d_313_61" x="0.784607" y="10.692" width="127.932" height="26.06" filterUnits="userSpaceOnUse" color-interpolation-filters="sRGB">
<feFlood flood-opacity="0" result="BackgroundImageFix"/>
<feColorMatrix in="SourceAlpha" type="matrix" values="0 0 0 0 0 0 0 0 0 0 0 0 0 0 0 0 0 0 127 0" result="hardAlpha"/>
<feOffset dy="4"/>
<feGaussianBlur stdDeviation="2"/>
<feComposite in2="hardAlpha" operator="out"/>
<feColorMatrix type="matrix" values="0 0 0 0 0 0 0 0 0 0 0 0 0 0 0 0 0 0 0.25 0"/>
<feBlend mode="normal" in2="BackgroundImageFix" result="effect1_dropShadow_313_61"/>
<feBlend mode="normal" in="SourceGraphic" in2="effect1_dropShadow_313_61" result="shape"/>
</filter>
<filter id="filter1_d_313_61" x="3.91663" y="48.162" width="332.157" height="64.816" filterUnits="userSpaceOnUse" color-interpolation-filters="sRGB">
<feFlood flood-opacity="0" result="BackgroundImageFix"/>
<feColorMatrix in="SourceAlpha" type="matrix" values="0 0 0 0 0 0 0 0 0 0 0 0 0 0 0 0 0 0 127 0" result="hardAlpha"/>
<feOffset dy="4"/>
<feGaussianBlur stdDeviation="2"/>
<feComposite in2="hardAlpha" operator="out"/>
<feColorMatrix type="matrix" values="0 0 0 0 0 0 0 0 0 0 0 0 0 0 0 0 0 0 0.25 0"/>
<feBlend mode="normal" in2="BackgroundImageFix" result="effect1_dropShadow_313_61"/>
<feBlend mode="normal" in="SourceGraphic" in2="effect1_dropShadow_313_61" result="shape"/>
</filter>
<filter id="filter2_d_313_61" x="123.42" y="119.692" width="218.2" height="27.908" filterUnits="userSpaceOnUse" color-interpolation-filters="sRGB">
<feFlood flood-opacity="0" result="BackgroundImageFix"/>
<feColorMatrix in="SourceAlpha" type="matrix" values="0 0 0 0 0 0 0 0 0 0 0 0 0 0 0 0 0 0 127 0" result="hardAlpha"/>
<feOffset dy="4"/>
<feGaussianBlur stdDeviation="2"/>
<feComposite in2="hardAlpha" operator="out"/>
<feColorMatrix type="matrix" values="0 0 0 0 0 0 0 0 0 0 0 0 0 0 0 0 0 0 0.25 0"/>
<feBlend mode="normal" in2="BackgroundImageFix" result="effect1_dropShadow_313_61"/>
<feBlend mode="normal" in="SourceGraphic" in2="effect1_dropShadow_313_61" result="shape"/>
</filter>
</defs>
</svg>
